<svg xmlns="http://www.w3.org/2000/svg" width="31.882" height="30.313" viewBox="0 0 31.882 30.313">
  <g id="users" transform="translate(-343.816 -515.753)">
    <g id="g13541">
      <g id="g13647">
        <g id="g16658" transform="translate(359.671 546.065)">
          <path id="path16660" d="M0,0H-2.5V-2.431c-.484-.562-2.99-1.574-5.427-1.574s-4.944,1.011-5.427,1.574V0h-2.5V-2.584c0-2.611,5.082-3.921,7.927-3.921S0-5.2,0-2.584Z" fill="#444"/>
        </g>
        <g id="g16662" transform="translate(351.744 531.377)">
          <path id="path16664" d="M0,0C-1.894,0-2.756,1.725-2.756,3.329V4.855c0,1.6.863,3.329,2.756,3.329S2.756,6.459,2.756,4.855V3.329C2.756,1.725,1.894,0,0,0M0,10.684c-3,0-5.256-2.506-5.256-5.829V3.329C-5.256.005-3-2.5,0-2.5S5.256.005,5.256,3.329V4.855C5.256,8.177,3,10.684,0,10.684" fill="#444"/>
        </g>
        <g id="g16666" transform="translate(375.698 546.065)">
          <path id="path16668" d="M0,0H-2.5V-2.431c-.484-.562-2.99-1.574-5.427-1.574s-4.942,1.011-5.426,1.574V0h-2.5V-2.584c0-2.611,5.082-3.921,7.926-3.921S0-5.2,0-2.584Z" fill="#444"/>
        </g>
        <g id="g16670" transform="translate(367.771 531.377)">
          <path id="path16672" d="M0,0C-1.894,0-2.756,1.725-2.756,3.329V4.855c0,1.6.863,3.329,2.756,3.329S2.756,6.459,2.756,4.855V3.329C2.756,1.725,1.894,0,0,0M0,10.684c-3,0-5.256-2.506-5.256-5.829V3.329C-5.256.005-3-2.5,0-2.5S5.256.005,5.256,3.329V4.855C5.256,8.177,3,10.684,0,10.684" fill="#444"/>
        </g>
        <g id="g16674" transform="translate(367.258 530.753)">
          <path id="path16676" d="M0,0H-2.5V-1.075A8.883,8.883,0,0,0-7.5-2.5a8.883,8.883,0,0,0-5,1.425V0H-15V-1.25C-15-3.748-10.191-5-7.5-5S0-3.748,0-1.25Z" fill="#444"/>
        </g>
        <g id="g16678" transform="translate(359.758 518.253)">
          <path id="path16680" d="M0,0C-1.717,0-2.5,1.574-2.5,3.035v1.43C-2.5,5.926-1.717,7.5,0,7.5S2.5,5.926,2.5,4.465V3.035C2.5,1.574,1.717,0,0,0M0,10c-2.85,0-5-2.38-5-5.535V3.035C-5-.12-2.85-2.5,0-2.5S5-.12,5,3.035v1.43C5,7.62,2.85,10,0,10" fill="#444"/>
        </g>
      </g>
    </g>
  </g>
</svg>
