<svg xmlns="http://www.w3.org/2000/svg" width="30.002" height="30.002" viewBox="0 0 30.002 30.002">
  <g id="trash" transform="translate(-344.756 -515.908)">
    <g id="g13541">
      <g id="g13647">
        <g id="g16698" transform="translate(354.757 520.908)">
          <path id="path16700" d="M0,0V-1.25A1.249,1.249,0,0,1,1.25-2.5h7.5A1.249,1.249,0,0,1,10-1.25V0ZM-5,2.5V21.251a1.25,1.25,0,0,0,1.25,1.25H0V11.251a1.25,1.25,0,0,1,2.5,0V22.5h5V11.251a1.25,1.25,0,0,1,2.5,0V22.5h3.75A1.249,1.249,0,0,0,15,21.251V2.5ZM-8.751,0A1.25,1.25,0,0,0-10,1.25,1.249,1.249,0,0,0-8.751,2.5H-7.5V21.251A3.752,3.752,0,0,0-3.751,25h17.5a3.751,3.751,0,0,0,3.75-3.751V2.5h1.251a1.25,1.25,0,0,0,0-2.5H12.5V-1.25A3.75,3.75,0,0,0,8.75-5H1.25A3.751,3.751,0,0,0-2.5-1.25V0Z" fill="#3f3f3f" fill-rule="evenodd"/>
        </g>
      </g>
    </g>
  </g>
</svg>
