<svg xmlns="http://www.w3.org/2000/svg" width="40.105" height="38.131" viewBox="0 0 40.105 38.131"><defs><style>.a{fill:#c10e21;}</style></defs><g transform="translate(-343.817 -515.753)"><path class="a" d="M4.09,1.678H.945V-1.38C.336-2.087-2.817-3.36-5.882-3.36S-12.1-2.088-12.709-1.38V1.678h-3.145V-1.573c0-3.285,6.393-4.932,9.972-4.932S4.09-4.863,4.09-1.573Z" transform="translate(359.671 552.206)"/><path class="a" d="M1.356.645c-2.383,0-3.467,2.17-3.467,4.188v1.92c0,2.013,1.086,4.188,3.467,4.188S4.823,8.77,4.823,6.752V4.833C4.823,2.815,3.738.645,1.356.645m0,13.44c-3.774,0-6.612-3.152-6.612-7.333V4.833C-5.256.651-2.418-2.5,1.356-2.5S7.968.651,7.968,4.833v1.92c0,4.179-2.838,7.333-6.612,7.333" transform="translate(352.433 534.762)"/><path class="a" d="M4.089,1.678H.944V-1.38C.336-2.087-2.817-3.36-5.883-3.36S-12.1-2.088-12.708-1.38V1.678h-3.145V-1.573c0-3.285,6.393-4.932,9.97-4.932S4.089-4.863,4.089-1.573Z" transform="translate(379.832 552.206)"/><path class="a" d="M1.356.645c-2.383,0-3.467,2.17-3.467,4.188v1.92c0,2.013,1.086,4.188,3.467,4.188S4.823,8.77,4.823,6.752V4.833C4.823,2.815,3.738.645,1.356.645m0,13.44c-3.774,0-6.612-3.152-6.612-7.333V4.833C-5.256.651-2.418-2.5,1.356-2.5S7.968.651,7.968,4.833v1.92c0,4.179-2.838,7.333-6.612,7.333" transform="translate(372.594 534.762)"/><path class="a" d="M3.869,1.29H.724V-.063a11.174,11.174,0,0,0-6.29-1.793,11.174,11.174,0,0,0-6.29,1.793V1.29H-15V-.283C-15-3.425-8.951-5-5.565-5S3.869-3.425,3.869-.283Z" transform="translate(369.435 533.332)"/><path class="a" d="M1.29.645c-2.16,0-3.145,1.98-3.145,3.818v1.8c0,1.838.985,3.818,3.145,3.818S4.435,8.1,4.435,6.262v-1.8C4.435,2.625,3.45.645,1.29.645m0,12.579C-2.3,13.224-5,10.23-5,6.262v-1.8C-5,.494-2.3-2.5,1.29-2.5S7.579.494,7.579,4.463v1.8c0,3.969-2.7,6.963-6.29,6.963" transform="translate(362.58 518.253)"/></g></svg>